PathFileType	4	(x/y/z)	TRC_MarkerData\Passive\Passive_Pref0007.trc
DataRate	CameraRate	NumFrames	NumMarkers	Units	OrigDataRate	OrigDataStartFrame	OrigNumFrames
240	240	6	50	mm	240	1	256
Frame#	Time	R_AC			L_AC			HEAD			STERN			L_IC			R_IC			L_ASIS			R_ASIS			L_GT			R_GT			L_PSIS			R_PSIS			SACRAL			L_LAT_KNEE			L_MED_KNEE			R_LAT_KNEE			R_MED_KNEE			L_LAT_ANK			L_MED_ANK			R_LAT_ANK			R_MED_ANK			L_THIGH_PROX_POST			L_THIGH_PROX_ANT			L_THIGH_DIST_ANT			L_THIGH_DIST_POST			R_THIGH_PROX_POST			R_THIGH_PROX_ANT			R_THIGH_DIST_ANT			R_THIGH_DIST_POST			L_SHANK_PROX_POST			L_SHANK_PROX_ANT			L_SHANK_DIST_ANT			L_SHANK_DIST_POST			R_SHANK_PROX_POST			R_SHANK_PROX_ANT			R_SHANK_DIST_ANT			R_SHANK_DIST_POST			L_HEEL_LAT			L_HEEL_SUP			L_HEEL_MED			R_HEEL_LAT			R_HEEL_SUP			R_HEEL_MED			L_1ST_MET			L_5TH_MET			L_TOE			R_1ST_MET			R_5TH_MET			R_TOE			C7			
		X1	Y1	Z1	X2	Y2	Z2	X3	Y3	Z3	X4	Y4	Z4	X5	Y5	Z5	X6	Y6	Z6	X7	Y7	Z7	X8	Y8	Z8	X9	Y9	Z9	X10	Y10	Z10	X11	Y11	Z11	X12	Y12	Z12	X13	Y13	Z13	X14	Y14	Z14	X15	Y15	Z15	X16	Y16	Z16	X17	Y17	Z17	X18	Y18	Z18	X19	Y19	Z19	X20	Y20	Z20	X21	Y21	Z21	X22	Y22	Z22	X23	Y23	Z23	X24	Y24	Z24	X25	Y25	Z25	X26	Y26	Z26	X27	Y27	Z27	X28	Y28	Z28	X29	Y29	Z29	X30	Y30	Z30	X31	Y31	Z31	X32	Y32	Z32	X33	Y33	Z33	X34	Y34	Z34	X35	Y35	Z35	X36	Y36	Z36	X37	Y37	Z37	X38	Y38	Z38	X39	Y39	Z39	X40	Y40	Z40	X41	Y41	Z41	X42	Y42	Z42	X43	Y43	Z43	X44	Y44	Z44	X45	Y45	Z45	X46	Y46	Z46	X47	Y47	Z47	X48	Y48	Z48	X49	Y49	Z49	X50	Y50	Z50	

1	0	-816.71	1497.7	428.44	-813.95	1493.9	74.601	-803.81	1778.9	238.1	-777.99	1437.3	255.19	-851.49	1075.4	91.908	-864.19	1086.7	417.87	-793.96	997.19	120.89	-796.52	991.12	396.59	-857.64	908.98	60.801	-894.75	931.26	447.51	-975.79	1054.5	201.89	-978.49	1062.9	294.17	-991.99	1027.4	248.12	-719.47	526.94	133.37	-748.07	510.41	266.8	-1038.2	546.7	379.75	-1032.8	562.56	246.25	-572.75	132.94	162.16	-572.35	134.56	234.37	-1220.4	153.23	323.43	-1200.4	171.92	235.44	NaN	NaN	NaN	-756.35	754.44	118.68	-730.85	687.52	135.4	-790.05	666.1	112.84	-1002.4	753.12	404.49	-937.07	737.55	415.66	-958.8	667.1	401.19	-1023.3	683.05	388.96	-699.78	441.83	137.27	-665.88	469.39	164.3	-652.13	412.42	169.89	-699.02	379.28	158.87	-1160.1	413.55	369.42	-1095.2	390.87	373.92	-1124	322.2	357.06	-1188.5	348.27	351.64	-617.19	34.285	168.54	-637.71	57.874	202.82	-613.97	34.465	235.44	-1312.1	111.2	294.06	-1298.8	137.59	261.21	-1293.2	107.47	230.33	-430.24	132.2	247.94	-450.99	103.05	142.99	-378.87	163.37	213.7	-1101.2	53.448	254.04	-1140.2	52.935	354.93	-1052.3	47.842	307.12	-888.57	1555.5	249.37
2	0.004183	-811.18	1496.5	428.01	-808.96	1492.5	74.142	-798.6	1777.6	237.75	-772.72	1435.9	254.8	-846.11	1074	91.589	-858.7	1085.2	417.82	-788.26	996.09	120.71	-790.96	989.65	396.46	-851.54	907.74	60.699	-889.6	929.98	447.36	-970.32	1053.1	201.66	-972.96	1061.4	293.93	-986.38	1026	247.84	-713.45	526.31	133.41	-742.71	509.75	266.73	-1034	545.94	379.32	-1028.2	561.72	245.86	-569.55	131.42	162.16	-569.27	132.95	234.43	-1219.2	153.93	323.28	-1199.2	172.49	235.34	NaN	NaN	NaN	-750.06	753.65	118.56	-724.82	686.52	135.52	-783.97	665.18	112.86	-997.54	752.25	404.07	-932.33	736.51	415.39	-954.25	666.06	400.85	-1018.7	682.2	388.41	-694.33	441.05	137.28	-660.39	468.37	164.49	-647.04	411.28	170.05	-694.08	378.48	158.78	-1156.9	413.75	369.09	-1092.1	390.56	373.53	-1121.4	322.12	356.79	-1185.8	348.71	351.34	-615.13	34.072	168.24	-634.98	57.979	202.5	-612.11	34.187	235.17	-1311.3	112.61	294.01	-1297.9	139.01	261.16	-1292.4	108.81	230.23	-427.1	128.69	248.42	-447.93	99.986	143.38	-375.24	159.12	214.44	-1101.2	53.331	254.09	-1140	52.974	354.87	-1052.3	47.77	307.12	-883.34	1554.2	248.99
3	0.008366	-805.42	1495.1	427.55	-803.75	1491.1	73.652	-793.18	1776.4	237.38	-767.22	1434.4	254.39	-840.49	1072.6	91.259	-852.95	1083.7	417.76	-782.31	994.97	120.51	-785.13	988.14	396.32	-845.2	906.5	60.588	-884.21	928.66	447.19	-964.61	1051.6	201.43	-967.18	1060	293.69	-980.54	1024.5	247.56	-707.19	525.7	133.44	-737.1	509.13	266.67	-1029.6	545.14	378.88	-1023.4	560.84	245.45	-566.29	129.85	162.16	-566.15	131.3	234.49	-1217.9	154.69	323.14	-1197.9	173.11	235.26	NaN	NaN	NaN	-743.54	752.85	118.44	-718.54	685.53	135.62	-777.64	664.25	112.88	-992.5	751.34	403.63	-927.36	735.44	415.11	-949.47	664.99	400.5	-1013.8	681.32	387.85	-688.68	440.29	137.3	-654.68	467.34	164.67	-641.75	410.14	170.2	-688.97	377.69	158.68	-1153.4	413.97	368.76	-1088.8	390.24	373.13	-1118.8	322.06	356.51	-1182.9	349.2	351.02	-613.07	33.882	167.96	-632.24	58.118	202.18	-610.26	33.936	234.91	-1310.3	114.12	293.97	-1297	140.54	261.11	-1291.6	110.26	230.13	-423.92	125.03	248.87	-444.86	96.796	143.76	-371.54	154.67	215.15	-1101.2	53.209	254.15	-1139.8	53.008	354.82	-1052.3	47.7	307.12	-877.87	1552.9	248.59
4	0.012549	-799.45	1493.8	427.07	-798.34	1489.8	73.134	-787.57	1775.1	237	-761.51	1433	253.94	-834.66	1071.2	90.922	-846.98	1082.2	417.71	-776.16	993.84	120.3	-779.08	986.6	396.18	-838.66	905.27	60.468	-878.59	927.31	447.02	-958.69	1050.2	201.21	-961.18	1058.5	293.46	-974.48	1023.1	247.3	-700.72	525.11	133.46	-731.26	508.57	266.61	-1024.9	544.31	378.43	-1018.3	559.93	245.04	-563.01	128.27	162.16	-563	129.65	234.55	-1216.6	155.5	323.03	-1196.6	173.76	235.19	NaN	NaN	NaN	-736.84	752.06	118.32	-712.05	684.56	135.72	-771.11	663.34	112.89	-987.24	750.4	403.18	-922.17	734.33	414.83	-944.46	663.89	400.15	-1008.7	680.4	387.27	-682.87	439.55	137.3	-648.79	466.33	164.83	-636.31	409.01	170.35	-683.72	376.93	158.59	-1149.7	414.21	368.42	-1085.4	389.93	372.72	-1116	322	356.24	-1179.8	349.71	350.69	-611.06	33.724	167.68	-629.52	58.298	201.87	-608.44	33.724	234.66	-1309.3	115.75	293.94	-1296.1	142.18	261.06	-1290.7	111.8	230.03	-420.74	121.25	249.3	-441.81	93.502	144.12	-367.83	150.07	215.83	-1101.2	53.084	254.21	-1139.6	53.036	354.77	-1052.3	47.631	307.12	-872.21	1551.6	248.16
5	0.016732	-793.32	1492.5	426.57	-792.77	1488.4	72.586	-781.81	1773.8	236.62	-755.64	1431.6	253.47	-828.65	1069.8	90.579	-840.8	1080.7	417.65	-769.85	992.72	120.08	-772.83	985.05	396.02	-831.97	904.08	60.338	-872.77	925.94	446.84	-952.59	1048.7	201.01	-954.99	1057	293.24	-968.24	1021.6	247.05	-694.09	524.57	133.48	-725.23	508.09	266.55	-1020.1	543.47	377.96	-1013	558.99	244.61	-559.75	126.69	162.16	-559.87	128	234.6	-1215.2	156.36	322.94	-1195.1	174.46	235.16	NaN	NaN	NaN	-730	751.28	118.21	-705.41	683.63	135.8	-764.43	662.45	112.89	-981.78	749.44	402.72	-916.77	733.21	414.54	-939.25	662.77	399.79	-1003.4	679.46	386.69	-676.94	438.84	137.31	-642.75	465.34	164.98	-630.76	407.89	170.48	-678.37	376.21	158.51	-1145.9	414.48	368.07	-1081.8	389.62	372.32	-1113	321.96	355.98	-1176.6	350.27	350.34	-609.12	33.604	167.43	-626.85	58.52	201.58	-606.69	33.557	234.43	-1308.2	117.49	293.92	-1295	143.92	261.03	-1289.7	113.46	229.94	-417.59	117.38	249.7	-438.85	90.128	144.44	-364.15	145.32	216.45	-1101.1	52.957	254.27	-1139.3	53.058	354.72	-1052.4	47.565	307.12	-866.38	1550.3	247.71
6	0.020915	-787.05	1491.1	426.04	-787.07	1487	72.011	-775.92	1772.6	236.22	-749.62	1430.1	252.98	-822.5	1068.5	90.234	-834.45	1079.2	417.6	-763.41	991.63	119.84	-766.42	983.51	395.85	-825.17	902.93	60.2	-866.78	924.56	446.66	-946.35	1047.3	200.82	-948.64	1055.6	293.05	-961.85	1020.2	246.81	-687.32	524.07	133.5	-719.02	507.69	266.49	-1015	542.61	377.5	-1007.5	558.03	244.19	-556.53	125.11	162.17	-556.79	126.37	234.65	-1213.7	157.27	322.88	-1193.5	175.19	235.15	NaN	NaN	NaN	-723.07	750.54	118.1	-698.64	682.75	135.86	-757.63	661.61	112.88	-976.14	748.46	402.26	-911.2	732.08	414.25	-933.86	661.65	399.43	-997.96	678.51	386.11	-670.91	438.19	137.3	-636.6	464.39	165.1	-625.13	406.81	170.59	-672.95	375.56	158.42	-1141.9	414.78	367.72	-1078.1	389.33	371.93	-1109.9	321.95	355.73	-1173.3	350.86	349.99	-607.28	33.526	167.21	-624.27	58.787	201.32	-605.02	33.442	234.22	-1307	119.35	293.92	-1293.9	145.77	261.01	-1288.6	115.22	229.87	-414.5	113.45	250.05	-435.99	86.702	144.74	-360.53	140.48	217.01	-1101.1	52.83	254.33	-1139.1	53.071	354.68	-1052.4	47.502	307.13	-860.41	1549	247.24
